# xmcd
#
# Track frame offsets:
#	150
#	15345
#	32412
#	51680
#	64605
#	77607
#	89140
#	109702
#	125875
#	144367
#	162595
#	203805
#	216675
#	235740
#	255717
#	269970
#	290700
#	308442
#	317405
#	324777
#
# Disc length: 4568 seconds
#
# Revision: 0
# Processed by: cddbd v1.4PL0 Copyright (c) Steve Scherf et al.
# Submitted via: dBpowerAMP V4.0
#
DISCID=2b11d614
DTITLE=John Denver - Collection
DYEAR=1999
DGENRE=Easy Listening
TTITLE0=High, Wide and Handsome
TTITLE1=A Country Girl in Paris
TTITLE2=Potter's Wheel
TTITLE3=American Child
TTITLE4=The Flower That Shattered The Stone (Reprise)
TTITLE5=In A Faraway Land
TTITLE6=Earth Day Every Day (Celebrate)
TTITLE7=Falling Leaves (The Refugees)
TTITLE8=Islands
TTITLE9=The Choosen Ones
TTITLE10=The Foxfire Suite
TTITLE11=The Marvelous Toy
TTITLE12=Hold On To Me
TTITLE13=Chained To The Wheels
TTITLE14=Home Grown Tomatoes
TTITLE15=Sing Australia
TTITLE16=Bread and Roses
TTITLE17=Grandma's Feather Bed
TTITLE18=Deal With The Ladies
TTITLE19=Potter's wheel (Live)
EXTD=
EXTT0=
EXTT1=
EXTT2=
EXTT3=
EXTT4=
EXTT5=
EXTT6=
EXTT7=
EXTT8=
EXTT9=
EXTT10=
EXTT11=
EXTT12=
EXTT13=
EXTT14=
EXTT15=
EXTT16=
EXTT17=
EXTT18=
EXTT19=
PLAYORDER=
